<?xml version="1.0" standalone="no"?>
<!DOCTYPE svg PUBLIC "-//W3C//DTD SVG 20010904//EN"
 "http://www.w3.org/TR/2001/REC-SVG-20010904/DTD/svg10.dtd">
<svg version="1.0" xmlns="http://www.w3.org/2000/svg"
 width="500.000000pt" height="500.000000pt" viewBox="0 0 500.000000 500.000000"
 preserveAspectRatio="xMidYMid meet">

<g transform="translate(0.000000,500.000000) scale(0.100000,-0.100000)"
fill="#000000" stroke="none">
<path d="M2315 4994 c-16 -2 -73 -9 -125 -15 -538 -62 -1059 -317 -1456 -713
-396 -397 -636 -885 -715 -1456 -18 -124 -18 -496 0 -620 65 -467 234 -871
520 -1240 85 -110 302 -327 412 -412 356 -275 749 -444 1199 -514 162 -26 539
-26 700 -1 560 88 1025 321 1415 711 477 478 735 1098 735 1766 0 377 -81 733
-244 1075 -127 266 -277 477 -490 691 -389 388 -867 628 -1418 710 -98 14
-469 27 -533 18z m-1576 -2043 c21 -13 5 -128 -19 -141 -27 -14 -143 -12 -163
3 -14 10 -16 21 -11 61 10 71 29 86 112 86 37 0 73 -4 81 -9z m709 -4 c15 -17
-1 -126 -19 -138 -8 -5 -53 -9 -101 -9 l-87 0 -5 -32 c-3 -18 -24 -184 -46
-367 -23 -184 -46 -341 -52 -348 -15 -18 -177 -18 -184 0 -4 11 63 589 82 709
l6 37 -99 3 -98 3 2 63 c1 35 7 70 14 78 16 20 571 21 587 1z m300 0 c8 -10 2
-90 -23 -298 -62 -509 -72 -586 -79 -598 -10 -16 -183 -15 -188 1 -2 6 -1 37
4 67 4 31 28 227 54 436 25 209 50 386 56 393 15 17 162 17 176 -1z m652 -9
c66 -33 93 -91 86 -178 -7 -80 -19 -90 -102 -90 -73 0 -88 12 -79 63 10 52
-19 77 -90 77 -66 0 -102 -15 -121 -51 -25 -49 -79 -505 -64 -543 9 -25 13
-26 83 -26 89 0 122 20 133 78 10 57 18 62 101 62 89 0 92 -4 69 -98 -21 -86
-58 -139 -121 -171 -46 -24 -59 -26 -195 -26 -125 0 -150 3 -184 20 -91 46
-99 99 -62 415 39 332 50 372 114 433 45 43 100 56 252 56 122 1 140 -1 180
-21z m427 7 c5 -9 2 -75 -9 -158 -21 -168 -22 -200 -7 -195 6 2 54 82 106 178
52 96 100 178 106 183 7 4 50 6 97 5 73 -3 85 -6 88 -21 2 -10 -45 -106 -105
-214 -59 -108 -107 -199 -107 -202 1 -3 28 -106 59 -228 32 -122 55 -229 52
-237 -5 -13 -24 -16 -95 -16 -60 0 -93 4 -100 13 -5 6 -31 101 -57 210 -65
271 -69 270 -104 -36 -11 -92 -23 -172 -26 -177 -9 -15 -185 -13 -186 3 -6 54
96 874 111 892 18 22 166 21 177 0z m1013 0 c8 -10 10 -30 6 -62 -13 -90 0
-83 -165 -83 -107 0 -151 -4 -159 -12 -8 -10 -32 -160 -32 -200 0 -4 66 -9
148 -10 l147 -3 3 -46 c2 -25 -2 -57 -7 -72 l-11 -27 -149 0 -149 0 -12 -87
c-6 -49 -12 -99 -13 -113 l-2 -25 140 -2 c197 -4 189 0 180 -76 -3 -34 -11
-67 -17 -74 -8 -10 -69 -13 -249 -13 -237 0 -239 0 -253 23 -12 19 -8 70 35
417 26 217 48 403 49 413 0 10 11 29 25 42 l24 25 224 0 c187 0 227 -3 237
-15z m708 0 c12 -23 -2 -125 -19 -136 -8 -5 -53 -9 -101 -9 -86 0 -86 0 -92
-27 -3 -16 -24 -181 -47 -368 -22 -187 -45 -346 -51 -352 -16 -19 -177 -18
-184 1 -4 12 64 616 81 718 l4 27 -97 3 -97 3 2 63 c1 35 7 70 14 78 18 22
574 21 587 -1z m-3840 -248 c8 -9 0 -102 -28 -325 -21 -172 -42 -317 -45 -322
-3 -6 -44 -10 -91 -10 -69 0 -86 3 -91 16 -8 22 66 626 79 642 14 17 162 17
176 -1z"/>
</g>
</svg>
