<svg fill="none" viewBox="0 0 230 53"><path fill="#ffffff" d="M16.076 1.574c1.176.728.28 7.169-1.064 7.897-1.512.784-8.008.671-9.128-.168-.784-.56-.896-1.177-.616-3.417.56-3.976 1.624-4.816 6.272-4.816 2.072 0 4.088.224 4.536.504zm39.704.224c.84.952-.056 7.057-1.064 7.729-.448.28-2.968.504-5.656.504h-4.872l-.28 1.791c-.168 1.009-1.344 10.305-2.576 20.553-1.288 10.303-2.576 19.096-2.912 19.487-.84 1.008-9.912 1.008-10.304 0-.224-.616 3.528-32.983 4.592-39.703l.336-2.073L27.5 9.92l-5.488-.168.112-3.529c.056-1.96.392-3.92.784-4.368.896-1.12 31.976-1.176 32.872-.056zm16.8 0c.448.56.112 5.04-1.288 16.688-3.472 28.504-4.032 32.817-4.424 33.489-.56.895-10.248.84-10.528-.056-.112-.336-.056-2.072.224-3.752.224-1.736 1.568-12.712 3.024-24.417 1.4-11.704 2.8-21.616 3.136-22.008.84-.952 9.072-.952 9.856.056zm36.512.504c3.696 1.848 5.208 5.097 4.816 9.968-.392 4.48-1.064 5.04-5.712 5.04-4.088 0-4.928-.671-4.424-3.527.56-2.912-1.064-4.312-5.04-4.312-3.696 0-5.712.84-6.776 2.855-1.4 2.744-4.424 28.28-3.584 30.408.504 1.4.728 1.456 4.648 1.456 4.984 0 6.832-1.12 7.448-4.367.56-3.193 1.008-3.473 5.656-3.473 4.984 0 5.152.224 3.864 5.489-1.176 4.816-3.248 7.784-6.776 9.575-2.576 1.344-3.304 1.456-10.92 1.456-7 0-8.4-.167-10.304-1.12-5.096-2.575-5.544-5.544-3.472-23.24C80.7 9.92 81.316 7.678 84.9 4.262c2.52-2.408 5.6-3.136 14.112-3.136 6.832-.056 7.84.056 10.08 1.176zm23.912-.392c.28.504.112 4.2-.504 8.849-1.176 9.407-1.232 11.2-.392 10.92.336-.112 3.024-4.592 5.936-9.968s5.6-9.969 5.936-10.249c.392-.224 2.8-.336 5.432-.28 4.088.168 4.76.336 4.928 1.176.112.56-2.52 5.936-5.88 11.985-3.304 6.047-5.992 11.143-5.992 11.311.056.169 1.568 5.936 3.304 12.768 1.792 6.833 3.08 12.825 2.912 13.273-.28.727-1.344.895-5.32.895-3.36 0-5.208-.224-5.6-.728-.28-.336-1.736-5.656-3.192-11.76-3.64-15.175-3.864-15.12-5.824 2.017-.616 5.151-1.288 9.632-1.456 9.912-.504.84-10.36.727-10.416-.169-.336-3.023 5.376-48.944 6.216-49.952 1.008-1.232 9.296-1.176 9.912 0zm56.728 0c.448.56.56 1.68.336 3.472-.728 5.04 0 4.649-9.24 4.649-5.992 0-8.456.223-8.904.671-.448.56-1.792 8.96-1.792 11.2 0 .224 3.696.505 8.288.56l8.232.169.168 2.575c.112 1.4-.112 3.192-.392 4.032l-.616 1.512h-16.688l-.672 4.873c-.336 2.744-.672 5.544-.728 6.328l-.112 1.4 7.84.111c11.032.224 10.584 0 10.08 4.256-.168 1.904-.616 3.752-.952 4.144-.448.56-3.864.728-13.944.728-13.272 0-13.384 0-14.168-1.288-.672-1.063-.448-3.92 1.96-23.351 1.456-12.152 2.688-22.569 2.744-23.129 0-.56.616-1.624 1.4-2.352l1.344-1.4h12.544c10.472 0 12.712.168 13.272.84zm39.648 0c.672 1.288-.112 7-1.064 7.617-.448.28-2.968.504-5.656.504-4.816 0-4.816 0-5.152 1.511-.168.896-1.344 10.136-2.632 20.608-1.232 10.473-2.52 19.377-2.856 19.712-.896 1.064-9.912 1.008-10.304-.056-.224-.671 3.584-34.495 4.536-40.207l.224-1.513-5.432-.167-5.432-.168.112-3.529c.056-1.96.392-3.92.784-4.368 1.008-1.232 32.144-1.176 32.872.056zM14.34 15.8c.448.503 0 5.712-1.568 18.2-1.176 9.631-2.352 17.752-2.52 18.032-.168.336-2.464.56-5.096.56-3.864 0-4.816-.169-5.096-.897-.448-1.232 3.696-35.056 4.424-35.952.784-.952 9.072-.952 9.856.056z"></path></svg>